An upper-middle-class couple\'s life is destroyed when their only child is kidnapped and killed. Obsessed with revenge, the couple seizes an opportunity to kidnap the killer.

Genre:Horror | Thriller
Language:English  http://www.imdb.com/title/tt1017464/
Source:DVD
 
http://www.youtube.com/watch?v=CdEfmMlpq1w&feature=player_embedded



General
Complete name :The.Tortured.2010.DvDRip.XviD.Feel-Free.avi
Format : AVI
Format/Info : Audio Video Interleave
File size : 785 MiB
Duration : 1h 18mn
Overall bit rate : 1 401 Kbps
Video #0
Muxing mode : Packed bitstream
Codec ID : XVID
Codec ID/Hint : XviD
Duration : 1h 18mn
Bit rate : 1 260 Kbps
Width : 720 pixels
Height : 384 pixels
Display aspect ratio : 1.875
Frame rate : 25.000 fps
Resolution : 24 bits
Colorimetry : 4:2:0
Scan type : Progressive
Bits/(Pixel*Frame) : 0.182
Stream size : 706 MiB (90%)
Audio #1
ID : 1
Format : MPEG Audio
Format version : Version 1
Format profile : Layer 3
Codec ID : 55
Codec ID/Hint : MP3
Duration : 1h 18mn
Bit rate mode : Variable
Bit rate : 128 Kbps
Channel(s) : 2 channels
Sampling rate : 48.0 KHz
Resolution : 16 bits
Video delay : 960ms
Stream size : 71.5 MiB (9%)
Alignment : Split accross interleaves
Interleave, duration : 24 ms (0.60 video frame)
Interleave, preload duration : 1517 ms
Writing library : LAME3.90.